HIERARCHY
ROOT Hips
{
     OFFSET 1.88212 96.90440 -13.34250
     CHANNELS 6 Xposition Yposition Zposition Zrotation Xrotation Yrotation
     JOINT Spine
     {
          OFFSET 0.00000 11.89050 0.00000
          CHANNELS 3 Zrotation Xrotation Yrotation
          JOINT Spine1
          {
               OFFSET -0.00000 25.65740 0.12766
               CHANNELS 3 Zrotation Xrotation Yrotation
               JOINT HEad
               {
                    OFFSET 0.00000 8.73416 0.01134
                    CHANNELS 3 Zrotation Xrotation Yrotation
                    End Site
                    {
                         OFFSET -0.29000 12.77420 2.51395
                    }
               }
               JOINT LeftShoulder1
               {
                    OFFSET 8.99000 -0.36225 -0.22000
                    CHANNELS 3 Zrotation Xrotation Yrotation
                    JOINT LeftArm
                    {
                         OFFSET 10.28270 -0.00338 0.32212
                         CHANNELS 3 Zrotation Xrotation Yrotation
                         JOINT LeftForeArm
                         {
                              OFFSET 32.76690 0.09914 -1.42434
                              CHANNELS 3 Zrotation Xrotation Yrotation
                              JOINT LeftHand
                              {
                                   OFFSET 27.56430 0.08536 1.02216
                                   CHANNELS 3 Zrotation Xrotation Yrotation
                                   End Site
                                   {
                                        OFFSET 16.74430 -0.60000 1.50291
                                   }
                              }
                         }
                    }
               }
               JOINT RightShoulder
               {
                    OFFSET -8.99000 -0.36225 -0.22000
                    CHANNELS 3 Zrotation Xrotation Yrotation
                    JOINT RightArm
                    {
                         OFFSET -10.28270 -0.00338 0.32212
                         CHANNELS 3 Zrotation Xrotation Yrotation
                         JOINT RightForeArm
                         {
                              OFFSET -32.89710 0.09914 -1.42434
                              CHANNELS 3 Zrotation Xrotation Yrotation
                              JOINT RightHand
                              {
                                   OFFSET -27.49210 0.08536 1.02216
                                   CHANNELS 3 Zrotation Xrotation Yrotation
                                   End Site
                                   {
                                        OFFSET -16.63120 -0.60000 1.50291
                                   }
                              }
                         }
                    }
               }
          }
     }
     JOINT LeftUpLeg
     {
          OFFSET 8.94580 -8.66707 0.10165
          CHANNELS 3 Zrotation Xrotation Yrotation
          JOINT LeftLeg
          {
               OFFSET 0.00000 -44.42270 1.37270
               CHANNELS 3 Zrotation Xrotation Yrotation
               JOINT LeftFoot
               {
                    OFFSET -0.25355 -42.09240 -1.46059
                    CHANNELS 3 Zrotation Xrotation Yrotation
                    JOINT LeftToes
                    {
                         OFFSET -0.04000 -4.41509 8.49910
                         CHANNELS 3 Zrotation Xrotation Yrotation
                         End Site
                         {
                              OFFSET 0.08000 -0.04745 9.77979
                         }
                    }
               }
          }
     }
     JOINT RightUpLeg
     {
          OFFSET -8.94580 -8.66707 0.10165
          CHANNELS 3 Zrotation Xrotation Yrotation
          JOINT RightLeg
          {
               OFFSET 0.00000 -44.42270 1.37270
               CHANNELS 3 Zrotation Xrotation Yrotation
               JOINT RightFoot
               {
                    OFFSET 0.25355 -42.09240 -1.46059
                    CHANNELS 3 Zrotation Xrotation Yrotation
                    JOINT RightToes
                    {
                         OFFSET 0.04000 -4.41509 8.49910
                         CHANNELS 3 Zrotation Xrotation Yrotation
                         End Site
                         {
                              OFFSET -0.08000 -0.13745 9.77979
                         }
                    }
               }
          }
     }
}
MOTION
Frames: 12
Frame Time: 0.01667
-15.67885 82.46335 -38.92376 8.87991 7.61366 137.60741 4.04515 21.17795 -5.19608 -0.02153 0.04206 0.07702 5.43616 15.68287 -8.87695 -9.98167 15.36782 26.61569 -104.78358 -45.45502 -85.86853 -82.13929 58.59307 -61.54935 32.26780 16.71250 -19.06180 -22.56898 6.93171 39.06376 125.28162 -49.39648 76.31734 -14.67984 39.02285 122.90215 43.91120 13.30076 -48.10186 12.22243 -29.19566 -12.57960 -23.75238 20.55993 60.40019 26.22636 -0.01048 0.01170 -21.21289 -5.59345 -73.82154 -34.13094 8.36726 22.09525 56.88084 38.00199 -41.57235 -37.45121 0.15867 -0.07311 23.72954 -52.62520 17.97143 
-15.77666 81.64986 -38.74719 8.79992 8.39044 138.31441 3.38057 23.91433 -0.14425 -0.02257 0.03906 0.06028 5.27626 13.41234 -12.02391 -8.01585 14.69341 22.40571 -103.68124 -52.20306 -77.73934 -71.96140 58.40836 -73.07587 22.89729 10.33301 -20.45965 -30.42526 1.19137 42.63866 130.95459 -49.57831 82.88865 -26.06845 31.93340 112.30688 45.28815 1.30356 -46.32973 11.71018 -29.71789 -11.67621 -24.64114 21.91756 60.08261 29.32385 -0.01118 0.02205 -24.00720 -6.37901 -74.10963 -33.91047 8.62654 22.30515 55.13298 39.89594 -41.68531 -30.48910 -0.00060 0.01200 18.40407 -53.42013 17.96903 
-15.84529 80.82730 -38.56074 8.68946 9.29677 139.16711 2.15728 26.73368 5.89735 -0.03115 0.04121 0.04809 5.59879 11.12607 -16.36181 -10.87946 16.56471 29.02783 -101.28446 -43.88469 -75.19918 -62.41061 53.77768 -79.88377 13.88244 4.64012 -24.11255 -30.91582 1.58978 36.51010 120.35345 -43.26040 80.90408 -34.86953 29.52033 96.38308 34.79884 5.03138 -28.59672 11.03868 -30.29739 -10.95135 -25.72137 23.44839 60.10793 32.45155 -0.01147 0.02894 -26.83040 -7.33085 -74.56450 -33.64777 8.89009 22.39085 53.78568 41.47175 -42.34481 -30.02987 0.01259 0.00456 18.92167 -53.80342 16.86372 
-15.85225 80.05587 -38.36296 8.53635 10.28763 140.15541 0.27741 29.41720 12.77544 -0.03521 0.04158 0.03474 6.38046 8.89589 -21.56353 -7.91946 15.62602 21.90555 -100.21519 -45.69621 -71.13512 -57.44285 51.67731 -83.20592 8.90285 2.07964 -25.71690 -30.93181 2.82056 29.56854 110.29984 -36.14618 80.77120 -37.09023 29.59233 75.12743 45.61423 -12.92865 -27.91352 10.26763 -30.92332 -10.37157 -26.90755 25.10188 60.39819 35.56555 -0.01142 0.03286 -29.69107 -8.34545 -75.12756 -33.39817 9.18276 22.35343 53.08930 42.76406 -43.61533 -27.97788 0.01810 0.01007 17.57458 -54.15897 16.62646 
-15.77242 79.37467 -38.13354 8.33291 11.32908 141.26619 -2.42731 32.24174 20.08169 -0.03970 0.04529 0.01813 7.50302 6.27252 -26.92744 -4.96669 14.08353 14.60889 -99.67639 -46.19363 -68.65619 -54.45324 51.23306 -85.09185 7.12041 0.46907 -26.28056 -29.92105 4.33469 21.71971 99.68884 -28.84924 81.64315 -33.69860 25.50405 51.39455 17.10458 8.49361 -7.81956 9.44506 -31.56405 -9.90344 -28.11889 26.83441 60.87007 38.60890 -0.01119 0.03407 -32.58803 -9.32701 -75.77683 -33.19949 9.52430 22.20406 52.93710 43.91498 -45.31413 -27.41100 0.01353 0.00672 17.49648 -54.54930 16.16752 
-15.57968 78.79779 -37.85693 8.06917 12.39131 142.47505 -6.06774 34.70879 27.54522 -0.04109 0.06099 -0.00588 9.01054 3.53747 -31.98847 -1.92794 12.19768 7.43907 -99.75005 -46.07951 -67.50349 -52.68512 51.69300 -85.90164 6.55838 -0.27552 -25.89453 -27.32276 5.98812 13.77793 87.90539 -22.36363 82.66025 -31.87001 18.32334 33.95768 20.84229 2.19813 0.89976 8.60807 -32.18414 -9.50879 -29.27931 28.60209 61.44049 41.52458 -0.01097 0.03299 -35.48864 -10.22244 -76.47921 -33.05904 9.92349 21.95890 53.23813 44.92488 -47.28812 -26.52211 0.01281 0.00947 17.07442 -55.00267 16.05273 
-15.24785 78.32822 -37.53188 7.73035 13.44518 143.75053 -10.70518 36.87960 34.54321 -0.03971 0.07665 -0.05047 10.79778 0.56359 -35.92125 1.08160 9.80747 1.17073 -100.40261 -45.71211 -67.47318 -60.16836 53.24183 -78.91095 8.57623 3.81145 -26.11957 -23.55005 6.76670 6.48147 79.44331 -18.36991 83.65508 -30.33825 8.16712 27.92454 7.01956 8.80765 16.28669 7.78534 -32.75703 -9.14894 -30.33092 30.36747 62.03613 44.26317 -0.01073 0.03044 -38.34234 -11.03637 -77.22150 -32.97667 10.37068 21.63352 53.86518 45.79842 -49.38309 -26.03158 0.01048 0.00848 17.06666 -55.51648 15.92687 
-14.76559 77.96532 -37.16998 7.32315 14.44952 145.04753 -16.00749 38.80635 40.23694 -0.01965 0.07188 -0.10648 12.61862 -2.43890 -38.02009 3.78992 7.08420 -3.34650 -101.54984 -45.16965 -68.20103 -65.09869 54.28829 -73.68861 17.05124 -8.38504 -13.91367 -19.03413 6.27788 0.57152 73.66367 -16.08732 83.84966 -28.33416 -1.40741 30.62262 16.43224 11.07535 1.56555 7.01877 -33.25284 -8.78992 -31.21652 32.08520 62.58965 46.78369 -0.01033 0.02683 -41.09659 -11.79922 -78.00562 -32.94175 10.85792 21.24911 54.71426 46.51278 -51.47564 -25.42907 0.00993 0.00945 17.01504 -56.03358 15.96786 
-14.15617 77.71510 -36.79450 6.87805 15.36133 146.31265 -21.33789 40.52069 44.00088 0.00535 0.04844 -0.13574 14.30118 -5.02818 -38.13398 6.04387 4.48412 -5.60444 -104.36475 -40.92053 -69.57479 -72.99619 55.08924 -63.59682 14.75114 7.22946 -20.89846 -14.57184 4.78764 -3.34526 73.38293 -16.23421 82.02817 -22.65549 -7.07458 42.66066 7.19891 8.38416 17.71854 6.34705 -33.64305 -8.41601 -31.88110 33.70359 63.04997 49.05632 -0.00972 0.02252 -43.69992 -12.53301 -78.84111 -32.93457 11.37342 20.83065 55.68651 47.05694 -53.45458 -24.88007 0.00953 0.00925 17.09626 -56.49008 16.09478 
-13.47444 77.59507 -36.44129 6.45008 16.13541 147.48155 -26.13945 42.12721 45.62589 0.02088 0.03151 -0.13295 15.75443 -6.90835 -36.48721 6.29735 7.48641 -16.39456 -111.06670 -46.97499 -81.64868 -77.85613 54.67046 -57.64830 19.49467 4.11503 -18.29488 -0.53313 7.88763 -9.54332 69.61881 -16.40232 86.95975 -12.53402 -7.37200 58.77918 8.70888 16.98632 -1.98580 5.80255 -33.90467 -8.02870 -32.27914 35.16650 63.38859 51.06376 -0.00875 0.01795 -46.09995 -13.24021 -79.72289 -32.92212 11.89410 20.40790 56.68842 47.42406 -55.21392 -24.24571 0.00930 0.00953 17.14711 -56.78799 16.29791 
-12.79546 77.61095 -36.14671 6.11270 16.73536 148.47964 -30.05219 43.73444 45.12546 0.03571 0.01795 -0.12076 16.89579 -7.93550 -33.37075 7.62916 5.28540 -14.02336 -111.37614 -40.74841 -81.26595 -76.00687 54.28789 -55.79911 17.36342 11.57025 -21.57506 2.22805 5.47784 -8.59371 75.75619 -18.50150 83.57902 -4.27942 -1.95761 71.72143 9.24075 4.88323 16.04710 5.40859 -34.02038 -7.63882 -32.38600 36.42285 63.60264 52.79939 -0.00733 0.01348 -48.24213 -13.91928 -80.62633 -32.87226 12.38979 20.02039 57.62677 47.62042 -56.64564 -23.57017 0.00914 0.00929 17.14282 -56.85155 16.44853 
-12.19400 77.75340 -35.95203 5.94027 17.13166 149.22888 -32.87967 45.38700 42.67948 0.03757 0.01599 -0.10037 17.66339 -8.15019 -29.12671 8.48722 3.88182 -10.98375 -112.01067 -37.37426 -81.65985 -74.94787 53.99856 -55.05759 19.18738 8.68923 -19.01184 14.54530 3.19938 -12.42195 73.81904 -15.99411 83.09026 1.86384 6.51953 80.90142 14.39967 15.39851 3.29091 5.18208 -33.98795 -7.25528 -32.20436 37.43832 63.71437 54.26127 -0.00545 0.00937 -50.07199 -14.58665 -81.51347 -32.76404 12.82475 19.71125 58.41661 47.66413 -57.65750 -22.83862 0.00933 0.00857 16.99045 -56.65863 16.46257 
